# xmcd CD database file
#
# Track frame offsets:
#	150
#	15832
#	29317
#	44850
#	62172
#	80787
#	96412
#	116017
#	136710
#	150952
#
# Disc length: 2254 seconds
#
# Revision: 4
# Processed by: cddbd v1.5.2PL0 Copyright (c) Steve Scherf et al.
# Submitted via: CDex 1.60beta1
#
DISCID=7b08cc0a
DTITLE=George Ducas - Where I Stand
DYEAR=1996
DGENRE=Country
TTITLE0=Every Time She Passes By
TTITLE1=Long Trail Of Tears
TTITLE2=I'm Pretending
TTITLE3=You're Only My Everything
TTITLE4=You Could've Fooled Me
TTITLE5=Tricky Moon
TTITLE6=Stay The Night
TTITLE7=The Invisible Man
TTITLE8=Heartaches And Dreams
TTITLE9=I'd Be Lying
EXTD=YEAR: 1996
EXTT0=
EXTT1=
EXTT2=
EXTT3=
EXTT4=
EXTT5=
EXTT6=
EXTT7=
EXTT8=
EXTT9=
PLAYORDER=
